<svg xmlns="http://www.w3.org/2000/svg" viewBox="0 0 573.12 573.12"><defs><style>.cls-1{fill:#fff;}</style></defs><title>sdb-logo-white</title><g id="Layer_2" data-name="Layer 2"><g id="Layer_1-2" data-name="Layer 1"><path class="cls-1" d="M345.15,243.27A95.48,95.48,0,0,0,318.33,219,94.11,94.11,0,1,0,294.6,390.55,95.47,95.47,0,0,0,327,374.46a96.72,96.72,0,0,0,24-26.86l0,0a93.19,93.19,0,0,0,9.94-72A96.78,96.78,0,0,0,345.15,243.27Z"/><path class="cls-1" d="M456.89,56.11,424.43,283.23c-6.54,52.61-3.26,89.92-4.43,114.92a28.34,28.34,0,0,1-52.08,15.54q-3.53,3-7.28,5.77-50.1,37.44-111.18,29-61.64-8.5-99.16-58.08t-29-111.18q8.53-61.66,58.1-99.19t111.18-29q34,4.73,61,22.28c.56-4.07,1.06-8,1.56-11.86q6.19-46.69,9.8-75.45c1.55-12.46,6.24-52,8.5-73.2A286.74,286.74,0,0,0,286.56,0C128.3,0,0,128.3,0,286.56S128.3,573.12,286.56,573.12s286.56-128.3,286.56-286.56A286.13,286.13,0,0,0,456.89,56.11Z"/></g></g></svg>