<!--?xml version="1.0" encoding="utf-8"?-->
<!-- Generator: Adobe Illustrator 23.0.1, SVG Export Plug-In . SVG Version: 6.00 Build 0)  -->
<svg version="1.1" id="Layer_1" xmlns="http://www.w3.org/2000/svg" xmlns:xlink="http://www.w3.org/1999/xlink" x="0px" y="0px" viewBox="0 0 18 24" style="" xml:space="preserve">
<style type="text/css">
	.st0{fill:none;stroke:#FFFFFF;stroke-linecap:round;stroke-linejoin:round;}
	.st1{fill:none;stroke:#FFFFFF;stroke-width:1.0063;stroke-linejoin:round;}
</style>
<title>export-shortcut-icon</title>
<g>
	<g id="Layer_1-2">
		<path class="st0 lqhGJlnt_0" d="M13.5,2.5H16c0.8,0,1.5,0.7,1.5,1.5v18c0,0.8-0.7,1.5-1.5,1.5H2c-0.8,0-1.5-0.7-1.5-1.5V4
			c0-0.8,0.7-1.5,1.5-1.5h2.5"></path>
		<path class="st0 lqhGJlnt_1" d="M10.7,1.5C10.2,0.6,8.9,0.2,8,0.8C7.7,1,7.5,1.2,7.3,1.5H5.5c-0.6,0-1,0.4-1,1V3c0,0.8,0.7,1.5,1.5,1.5h6
			c0.8,0,1.5-0.7,1.5-1.5V2.5c0-0.6-0.4-1-1-1H10.7z"></path>
		<path class="st1 lqhGJlnt_2" d="M11.8,13.8V16H6.1v-5.1h4.1"></path>
		<path class="st1 lqhGJlnt_3" d="M12,11.3l-3,3l-1.2-1.2"></path>
	</g>
</g>
<style data-made-with="vivus-instant">.lqhGJlnt_0{stroke-dasharray:65 67;stroke-dashoffset:66;animation:lqhGJlnt_draw 233ms ease-in 0ms forwards;}.lqhGJlnt_1{stroke-dasharray:23 25;stroke-dashoffset:24;animation:lqhGJlnt_draw 233ms ease-in 38ms forwards;}.lqhGJlnt_2{stroke-dasharray:18 20;stroke-dashoffset:19;animation:lqhGJlnt_draw 233ms ease-in 77ms forwards;}.lqhGJlnt_3{stroke-dasharray:6 8;stroke-dashoffset:7;animation:lqhGJlnt_draw 233ms ease-in 116ms forwards;}@keyframes lqhGJlnt_draw{100%{stroke-dashoffset:0;}}@keyframes lqhGJlnt_fade{0%{stroke-opacity:1;}91.20879120879121%{stroke-opacity:1;}100%{stroke-opacity:0;}}</style></svg>
