<svg xmlns="http://www.w3.org/2000/svg" viewBox="0 0 25 18.68">
    <defs>
        <style>
            .cls-1{fill:#fff}
        </style>
    </defs>
    <title>graduation-cap-bold</title>
    <g id="Layer_2" data-name="Layer 2">
        <g id="Layer_1-2" data-name="Layer 1">
            <path class="cls-1" d="M24.86 4.85A1.66 1.66 0 0 0 24 4L14.19.34A4.29 4.29 0 0 0 12.5 0a4.22 4.22 0 0 0-1.69.34L1 4a1.65 1.65 0 0 0-.87.91 1.55 1.55 0 0 0 0 1.25A1.62 1.62 0 0 0 1 7l2.48 1L3 11.51a.57.57 0 0 0 0 .13c.1 1.36 1.15 2.59 3 3.45l.53-.93a2 2 0 0 1-.14-.34 1.92 1.92 0 0 1 0-.79C5.5 12.55 5 12 5 11.53v-.07l.35-2.71 1.46.59a2.07 2.07 0 0 1 .8-1.64l.12-.1-5.12-2.09 8.91-3.32A2.32 2.32 0 0 1 12.5 2a2.28 2.28 0 0 1 .93.19h.05l8.91 3.31-8.93 3.57a2.36 2.36 0 0 1-.94.19 2.32 2.32 0 0 1-.94-.19l-.92-.36-1.11.88v.82l1.28.51a4.35 4.35 0 0 0 1.71.34 4.3 4.3 0 0 0 1.7-.34l5.37-2.14.4 2.69v.07c0 .59-.71 1.26-1.89 1.79a13.86 13.86 0 0 1-5.58 1h-.07a16.67 16.67 0 0 1-2.73-.23 1.5 1.5 0 0 1-.33.46l.26 1.54a18.62 18.62 0 0 0 2.79.21h.08a15.91 15.91 0 0 0 6.39-1.2c1.91-.86 3-2.09 3.07-3.47v-.13L21.45 8 24 7a1.6 1.6 0 0 0 .87-.9 1.58 1.58 0 0 0-.01-1.25Z"/>
            <path class="cls-1" d="M9.13 13.31a1 1 0 0 0-.39-.81V9.31a.17.17 0 0 1 .07-.15l4-3.23a.57.57 0 0 0 .09-.79.54.54 0 0 0-.79-.09l-4 3.23a1.3 1.3 0 0 0-.5 1v3.1a1 1 0 0 0-.39.4 1 1 0 0 0 .22 1.28l-1.72 3.21a.58.58 0 0 0 .11.71l.46.41a2.74 2.74 0 0 0 1.25.29h.89a.59.59 0 0 0 .4-.16.57.57 0 0 0 .17-.41.34.34 0 0 0 0-.11l-.45-3.76a1 1 0 0 0 .58-.93Z"/>
        </g>
    </g>
</svg>
