<svg version="1" xmlns="http://www.w3.org/2000/svg" width="1772" height="1772" viewBox="0 0 1329.000000 1329.000000"><path d="M638.7.6c-.1.1-5.8.5-12.7.9-6.9.3-14.1.7-16 .9-1.9.2-7.1.7-11.4 1.1-4.3.4-8.7.8-9.7 1-1 .2-4.4.6-7.6 1-3.2.3-6.9.7-8.3 1-1.4.2-4.5.7-7 1-5.9.8-22.6 3.7-29 5-1.4.3-3.8.8-5.5 1.1-26 4.6-86.3 22.3-107 31.3-1.1.5-6.5 2.7-12 4.9-18.4 7.4-54.3 24.7-71.5 34.4-26.5 15-51.4 31.3-75.5 49.4-15.8 11.8-16.4 12.3-34 27.3-47.2 40.5-93 92.9-125.1 143.3-2.7 4.3-6.1 9.7-7.6 12-1.5 2.4-3.1 5-3.5 5.8-.3.8-1.8 3.3-3.1 5.4-12.9 20.8-31.3 58-43.9 89.1-14.5 35.7-29.3 85.9-35.7 121-1.8 9.7-4.8 27.5-5.2 30.5-.2 1.9-.6 4.6-.9 6-.2 1.4-.7 5.2-1 8.5-.3 3.3-.8 7.1-1 8.5-.2 1.4-.7 6.1-1.1 10.5-.3 4.4-.8 9.3-1 11-2.2 18-2.1 91.5.1 103.3.1.9.6 6 1 11.2.3 5.2.8 9.7 1 10 .1.3.5 3.7.9 7.5.4 3.9.9 8.4 1.1 10 .3 1.7.7 4.3 1 6 1 6.2 1.7 11.1 2 13 3 23.3 15.4 72.4 26.2 104.5 11.7 34.8 32.1 80.5 48.2 108.4 2.8 4.9 5.1 9 5.1 9.2 0 .9 23.1 37.8 26.2 41.9.5.5 5.1 7.1 10.4 14.5 8.2 11.6 26.2 34.5 34.9 44.5 11.3 13 16.3 18.4 34 36 11 11 22.5 22.3 25.5 25.1 9.6 8.8 31.5 26.8 45.6 37.4 13.2 9.9 48.9 34.3 52.9 36.1 1.1.5 3.6 1.9 5.6 3.2 26 16.3 71.8 38.4 106.4 51.4 26.1 9.8 64.4 21.4 85.1 25.8 1.1.2 5.1 1 8.9 1.9 8 1.7 11.5 2.4 16.4 3.2 1.8.3 4.3.8 5.5 1 1.1.2 3.7.7 5.6 1 1.9.2 5.8.9 8.5 1.4 2.8.5 7.3 1.2 10 1.5 2.8.3 6.1.7 7.5 1 6.1 1 28.1 3.3 41.5 4.2 21.3 1.6 88.6.8 104-1.1 1.7-.3 6.2-.7 10-1.1 3.9-.3 8.1-.8 9.5-1 1.4-.2 4.8-.6 7.5-1 6.3-.7 29.2-4.3 32.5-5 1.4-.3 3.9-.7 5.5-1 5.8-.9 27.1-5.6 39-8.6 49.2-12.5 91.5-28.4 138-52 10.5-5.3 21.5-11.1 24.5-12.9 3-1.8 7.5-4.4 10-5.8 15.7-8.7 41.8-26.2 62.5-41.7 28.3-21.4 45.4-36.3 72.5-63.4 23.6-23.7 42-44.7 59.9-68.6 2.9-3.9 5.9-7.9 6.8-8.9 3.7-4.6 26.3-38.6 29.8-45.1.6-1.1 2.3-3.8 3.7-6.1 14-22 35.6-66.3 48.2-98.4 11.1-28.7 23.3-68.8 29.1-95.9.2-.9 1-4.8 1.9-8.6 2.1-9.7 6.7-36.9 8.1-47.5 1-7.4 2.2-18.4 3-27.5.3-3.9.8-8.4 1-10 2.1-16.2 2.1-81.4 0-101.5-.2-1.9-.6-6.9-1-11-.3-4.1-.7-8.6-.9-10-.2-1.4-.6-5.4-1-9-.4-3.6-1.9-13.5-3.2-22-1.4-8.5-2.7-17.1-3-19-.3-1.9-.9-5.1-1.4-7-.5-1.9-1.2-5.1-1.5-7-1.5-8.7-6.6-29.6-12.1-49.2-2.7-9.6-13.8-43.6-15.9-48.3-.7-1.7-3.9-9.5-7-17.5-19.5-48.9-48.8-101.1-81.5-145-8.7-11.7-29-36.9-33.5-41.6-1.1-1.2-5.1-5.7-9-10-22.4-25.2-58.9-58.7-87.9-80.8-20.4-15.6-51-36-70.1-46.9-16.4-9.3-19.4-10.9-35.5-19-30.1-15.2-58.9-27-91-37.5-15.7-5.2-36.5-11.3-42.7-12.7-1-.2-8.8-1.9-17.3-3.8-15.5-3.5-33.9-7.1-41.5-8.2-2.3-.3-5-.7-6.1-.9-1.2-.2-4.5-.7-7.5-1.1-3-.3-6.5-.8-7.9-1-1.4-.2-5.2-.7-8.5-1-3.3-.3-7.6-.8-9.5-1-3.9-.5-13.3-1.2-26-2.1-8.3-.6-64.8-1.3-65.3-.8zm67.8 57.8c1.7.2 7.3.7 12.5 1.2 12.6.9 14.1 1.1 18.6 1.8 2.2.3 5.9.8 8.4 1.1 3.8.5 14.4 2.2 31.4 5 33.6 5.6 85.7 21.4 123.1 37.2 3.3 1.4 6.9 2.9 8 3.4 13.2 5.4 56.2 27.8 70 36.4 24.5 15.2 56 37.5 69.7 49.2 2.5 2.1 5.8 4.9 7.5 6.3 1.7 1.4 6.1 5.2 9.8 8.5 54 47.8 97.2 101.8 131.9 165 8.4 15.2 24.6 48.3 24.6 50.1 0 .3.9 2.4 1.9 4.7 6 13.2 16.1 41.1 22.2 61.6 3.7 12.2 12.1 45.3 13.3 52.6.3 1.6.8 4.1 1.1 5.5.5 2.7 3.4 18.9 4 23 1.5 9.8 3.1 22.7 4.1 33 .3 3.6.7 7.8.9 9.5 2.4 21.2 2.4 80.7 0 101-.2 1.6-.6 6.1-.9 10-.3 3.8-.8 8.1-1 9.5-.3 1.4-.7 5.2-1.1 8.5-.3 3.3-.8 6.7-1 7.5-.2.8-.6 3.7-1 6.5-1 7.6-5.3 30.7-8.1 43-4.5 19.8-15.8 58.9-18.3 63.5-.5.9-1.2 3.1-1.6 5-.4 1.9-1.1 3.9-1.4 4.5-.4.5-2.3 5-4.1 10-1.8 4.9-4.1 10.8-5.1 13-.9 2.2-2.7 6.2-3.9 9-5.2 12.2-7 16.1-16 34-40.9 81-102.6 155.1-174 208.8-5.2 3.9-9.7 7.4-10 7.7-1.9 1.9-37 25.1-46.2 30.5-57.6 33.6-110.8 55.2-172.8 69.9-5.8 1.4-11.8 2.8-13.5 3.1-5.6 1.1-19 3.5-22.4 4.1-1.8.3-4.3.8-5.5 1-1.1.2-4.1.6-6.6 1-2.5.3-7 .9-10 1.4-5.3.8-15.9 2.1-21 2.5-1.4.1-7 .5-12.5.9s-12 .9-14.5 1.1c-5.7.5-59 .5-65 0-2.5-.2-8.5-.6-13.5-1-4.9-.3-10.6-.8-12.5-1-1.9-.2-6-.6-9-1-3-.3-7.1-.7-9-1-1.9-.2-5.7-.7-8.5-1.1-2.7-.3-9.9-1.5-16-2.5-6-1.1-12.1-2.2-13.5-2.4-4.9-.7-18.6-3.7-28.5-6.1-5.5-1.4-11.1-2.7-12.4-3-1.4-.3-2.8-.7-3.3-1-.4-.3-1.6-.7-2.5-.9-4.3-.8-24.5-7-36.6-11.2-59.5-20.6-113.4-49.1-164.3-86.8-12.7-9.4-11.6-8.6-25-19.7-31.7-26.1-63-58.2-88.6-90.5-11.5-14.4-27.8-37-34.3-47.4-12.6-20.3-23-38.7-32-56.4-10.4-20.7-13.1-26.4-17.1-36-.9-2.2-2.2-5.4-2.9-7-4.7-10.6-18-48.3-20.5-58-.4-1.7-2.1-8-3.8-14-3.1-11.7-7.7-30.7-8.7-36.5-.3-1.9-1.5-8-2.5-13.5-1.1-5.5-2.2-12-2.5-14.5-.3-2.5-.8-5.6-1-7-.5-2.3-.7-4.3-1.9-14.5-.2-1.7-.7-6.4-1.1-10.5-.4-4.1-.9-8.2-1-9.1-.8-4.4-1.9-34.8-1.9-52.9 0-18.2.9-42.2 1.9-52 .2-1.9.7-6.7 1-10.5.3-3.9.8-7.7 1-8.5.2-.8.7-4.4 1-8 .7-7.4 4.8-32.1 7-42.5.9-3.9 1.8-8.1 2-9.4 2.6-13.8 11-43.6 19.1-67.1 37.3-109.3 108.3-208.7 200.3-280.3 34-26.6 66.6-47 105.6-66.2 47.7-23.5 89.1-37.8 144.5-50 3.6-.7 18.9-3.5 22.5-4 2.2-.3 6.3-1 9-1.5 5.9-1.1 10.8-1.7 23.5-3 5.2-.6 11.2-1.2 13.2-1.5 2-.2 9-.7 15.5-1.1 6.5-.4 12-.8 12.2-1 .5-.5 65.9.4 69.6 1z"/><path d="M852.7 175.6c-.1.1-3.3.5-7.2.8-23.5 2.1-47.5 10.5-66.5 23.4-8 5.4-10 8.5-10.6 16.7-.4 6-1.9 20.5-2.9 28.5-.6 5.3-1.4 12.9-2 18.5-.3 2.7-.7 6.3-.9 8-.2 1.6-.7 5.9-1.1 9.5-.3 3.6-.8 7.6-1 9-.2 1.4-.7 5.6-1 9.5-.4 3.8-.8 7.7-1.1 8.5-.2.8-.6 3.8-.9 6.5-.7 8.3-3.3 30.2-4 34.5-.2 1.4-.6 5.2-1 8.6-.3 3.3-.7 7.1-1 8.5-.2 1.3-.9 6.9-1.5 12.4s-1.3 11-1.5 12.1c-.2 1.2-.6 4.8-1 8-.4 3.3-.9 7-1.1 8.4-.2 1.4-.7 4.9-1 7.9-.3 3-.8 6.4-1 7.5-.2 1.2-.6 4.6-.9 7.7-.3 3.1-.7 6.4-.9 7.5-.2 1-.7 4.8-1.1 8.4-.3 3.6-.8 7.2-1 8-.2.8-.7 4-1 7-.3 3-.8 6.6-1 8-.2 1.4-.7 4.5-1 7-1 7.8-1.6 12.4-2 15-.2 1.4-.6 5-1 8-.3 3-.8 6.6-1 8-.2 1.4-.7 4.3-.9 6.5-1.2 9.4-1.6 12.5-3 22.5-.8 5.8-1.8 13.2-2.2 16.5-.3 3.3-.7 6.1-.9 6.3-.1.1-3.1-1.5-6.6-3.6-28.2-17.1-63.7-31-94.3-36.8-1.2-.2-3.2-.6-4.6-.9-1.4-.2-4.1-.7-6-1-1.9-.3-4.6-.7-6-1-1.4-.2-5.2-.7-8.5-1.1-3.3-.3-6.9-.8-8-1-2.9-.6-24.8-1.7-33-1.7-18.5 0-41 2.3-57.5 5.8-1.4.3-3.4.7-4.5.9-17.3 3.3-44.6 13.1-65 23.3-70.1 34.9-124 93.3-149.8 162.3-8.9 23.8-16.1 55.1-18.2 79.5-.4 3.8-.8 8.8-1 11-.5 5.2-.5 35.6-.1 41.5 1.2 15.2 2.6 24.9 5.6 40 .6 3 1.3 6.6 1.6 8 .3 1.4.8 3.4 1.1 4.5.4 1.1.8 2.4.9 3 .7 3.4 7.3 22.6 10.6 31 19.3 48.6 59 100.8 99.3 130.6 3.3 2.4 6.2 4.6 6.5 5 1.5 1.7 30.5 19.9 31.8 19.9.3 0 4.4 2 9.1 4.4 13.4 6.9 40.4 16.9 54.1 20.1.8.2 5.3 1.2 10 2.3 8.7 2.1 10.3 2.4 22.5 4.3 3.9.6 8.1 1.2 9.5 1.5 12.3 2 59 2.7 72 1 56.6-7 106.3-27.8 151.9-63.4 8.9-7 9.5-7.3 10.8-5.6 6 8.5 17.7 17 28.1 20.6 9.4 3.2 26.7 3.2 36.2-.1 18.9-6.6 33.6-23.3 37.5-42.6.9-4.6 1.5-31.2 1.9-94.5.2-31.6.7-61.1 1-65.5.3-4.4.8-12.5 1.1-18 .3-5.5.7-12.1.9-14.5.3-2.5.8-7.9 1.1-12 .3-4.1.8-8.6 1-10 .2-1.4.7-5.7 1-9.5.3-3.9.7-7.9.9-9 .2-1.1.7-4.7 1.1-8 .8-6.5.8-6.6 1.9-14 .9-5.7 1.2-8.2 2.1-14.5.3-2.5 1.1-7.4 1.6-11 .6-3.5 1.2-8.2 1.4-10.5.3-2.2.7-5.1 1-6.4.2-1.4.9-6.1 1.5-10.5.6-4.5 1.3-9.2 1.5-10.6.2-1.4.7-4.5 1-7 .6-4.7.9-6.5 2-14 1.1-7.6 1.4-9.3 2-14 .3-2.5 1-7.2 1.5-10.5s1.2-8 1.5-10.5c.3-2.5.8-5.6 1-7 .2-1.4.7-4.5 1-7 .3-2.5.8-5.2 1-6 .2-.8.6-4 1-7.1.3-3.1.7-6.6.9-7.6.3-1.1.7-4.4 1.1-7.4.4-3 .8-5.6 1-5.9.2-.3.6-3.4 1-7s.9-7.3 1.1-8.3c.1-1 1-7 1.9-13.5.9-6.4 1.8-12.8 2-14.2.3-1.4 1.2-7.7 2-14l2-14c.2-1.4.7-4.5 1-7 .3-2.5.8-5.2 1-6 .2-.8.6-4.2 1-7.5.3-3.3.7-6.7 1-7.5.2-.8.6-3.8 1-6.5.3-2.8.8-5.9 1-7 .3-1.1.7-4.3 1-7 .3-2.8.9-7.5 1.5-10.5.5-3 1.1-7.3 1.4-9.5.3-2.2.8-6 1.1-8.5.3-2.5.8-5.6 1-7 .8-4.6 1.8-11.2 3-20.5.3-2.2.7-5.1.9-6.5.2-1.4.7-4.6 1-7.1.4-2.5.8-5.7 1-7 .5-2.9 1.8-11.6 2.1-14.4.8-5.6 6.4-44.9 7-48.5.2-1.4.7-4.5 1-7 .3-2.5 1.7-12.4 3.1-22 1.4-9.6 2.7-19 3-20.8.2-1.7.6-4.8.9-6.7.3-1.9.7-5.2 1-7.3 1-6.6 1.7-11.7 2.1-13.6.2-1.1.6-4.2.9-7 .3-2.8.8-6.2 1-7.6.2-1.4 1.1-7.2 1.9-13 .8-5.8 1.8-12.3 2.1-14.5.3-2.2.8-5.6 1.1-7.5 2.8-16.3-.3-21.6-15.2-26.4-2.8-.9-5.9-1.8-7-2.1-1-.2-4.8-1-8.4-1.9-3.6-.8-8.3-1.7-10.5-2-2.2-.3-7.1-1-11-1.5-8.7-1.3-47.9-3.2-48.8-2.5zM584 625.5c17 2.4 18.8 2.8 30.2 5.9 78.5 21.5 136.7 97 137.1 177.9.1 12.2-.8 28-1.8 31-.2.6-.6 3-.9 5.2-.9 7.1-5.5 23.7-9.2 33.5-12.7 33-34.4 61.3-65.4 85.4-4.8 3.7-19.1 12.2-27.7 16.4-39.7 19.5-80.3 24.5-123.3 15.2-17.8-3.9-28.2-7.6-44-15.6-40.1-20.3-71.7-54.2-88.4-94.6-5.5-13.2-10.3-28.8-12.2-39.8-.2-1.4-.6-3.6-.9-5-1.9-10.5-2.4-34.5-1.1-48 .4-4.1.9-7.7 1.1-8 .1-.3.6-2.5.9-5 1.2-8.8 5.4-24.9 8.6-32.5.4-1.1 1.8-4.5 3-7.5 3.2-8 11.4-23.1 17-31.5 25.3-37.5 59.8-63 103.7-76.5 5.1-1.6 11.8-3.4 15-4 3.2-.5 6.9-1.2 8.3-1.5 1.4-.3 5.7-.8 9.5-1.1 3.9-.4 7.1-.8 7.3-.9.6-.5 28.8.3 33.2 1z"/></svg>