<svg xmlns="http://www.w3.org/2000/svg" viewBox="0 0 25 18.68"><defs><style>.cls-1{fill:#fff;}</style></defs><title>graduation-cap-bold</title><g id="Layer_2" data-name="Layer 2"><g id="Layer_1-2" data-name="Layer 1"><path class="cls-1" d="M24.86,4.85A1.66,1.66,0,0,0,24,4h0L14.19.34A4.29,4.29,0,0,0,12.5,0a4.22,4.22,0,0,0-1.69.34L1,4H1a1.65,1.65,0,0,0-.87.91,1.55,1.55,0,0,0,0,1.25A1.62,1.62,0,0,0,1,7H1L3.48,8,3,11.51v0a.57.57,0,0,0,0,.13C3.1,13,4.15,14.23,6,15.09l.53-.93a2,2,0,0,1-.14-.34,1.92,1.92,0,0,1,0-.79C5.5,12.55,5,12,5,11.53v-.07l.35-2.71,1.46.59v0a2.07,2.07,0,0,1,.8-1.64l.12-.1L2.61,5.51l8.91-3.32h0A2.32,2.32,0,0,1,12.5,2a2.28,2.28,0,0,1,.93.19l.05,0,8.91,3.31L13.46,9.07h0a2.36,2.36,0,0,1-.94.19,2.32,2.32,0,0,1-.94-.19h0l-.92-.36-1.11.88v.82l1.28.51a4.35,4.35,0,0,0,1.71.34,4.3,4.3,0,0,0,1.7-.34l5.37-2.14.4,2.69v.07c0,.59-.71,1.26-1.89,1.79a13.86,13.86,0,0,1-5.58,1h-.07a16.67,16.67,0,0,1-2.73-.23,1.5,1.5,0,0,1-.33.46l.26,1.54a18.62,18.62,0,0,0,2.79.21h.08a15.91,15.91,0,0,0,6.39-1.2c1.91-.86,3-2.09,3.07-3.47,0,0,0-.09,0-.13v0L21.45,8,24,7h0a1.6,1.6,0,0,0,.87-.9A1.58,1.58,0,0,0,24.86,4.85Z"/><path class="cls-1" d="M9.13,13.31a1,1,0,0,0-.39-.81V9.31a.17.17,0,0,1,.07-.15l4-3.23a.57.57,0,0,0,.09-.79.54.54,0,0,0-.79-.09l-4,3.23a1.3,1.3,0,0,0-.5,1v3.1a1,1,0,0,0-.39.4,1,1,0,0,0,.22,1.28L5.72,17.27a.58.58,0,0,0,.11.71l.46.41a2.74,2.74,0,0,0,1.25.29h.89a.59.59,0,0,0,.4-.16A.57.57,0,0,0,9,18.11.34.34,0,0,0,9,18l-.45-3.76A1,1,0,0,0,9.13,13.31Z"/></g></g></svg>